<svg width="24" height="25" viewBox="0 0 24 25" fill="none" xmlns="http://www.w3.org/2000/svg">
<path fill-rule="evenodd" clip-rule="evenodd" d="M12 3.29541C6.89136 3.29541 2.75 7.43677 2.75 12.5454C2.75 17.654 6.89137 21.7954 12 21.7954C17.1086 21.7954 21.25 17.654 21.25 12.5454C21.25 12.1312 21.5858 11.7954 22 11.7954C22.4142 11.7954 22.75 12.1312 22.75 12.5454C22.75 18.4824 17.937 23.2954 12 23.2954C6.06293 23.2954 1.25 18.4824 1.25 12.5454C1.25 6.60835 6.06294 1.79541 12 1.79541C14.7937 1.79541 17.339 2.8618 19.25 4.6081V3.04541C19.25 2.6312 19.5858 2.29541 20 2.29541C20.4142 2.29541 20.75 2.6312 20.75 3.04541V6.54541C20.75 6.95962 20.4142 7.29541 20 7.29541H16.5C16.0858 7.29541 15.75 6.95962 15.75 6.54541C15.75 6.1312 16.0858 5.79541 16.5 5.79541H18.3246C16.6699 4.24413 14.446 3.29541 12 3.29541Z" fill="white"/>
<path d="M15.9453 12.9031C15.7686 13.5298 14.9333 13.9727 13.2629 14.8585C11.648 15.7147 10.8406 16.1429 10.1899 15.9708C9.9209 15.8996 9.6758 15.7645 9.47812 15.5783C9 15.1281 9 14.2548 9 12.5083C9 10.7617 9 9.88848 9.47812 9.43825C9.6758 9.25211 9.9209 9.11698 10.1899 9.04583C10.8406 8.87374 11.648 9.30187 13.2629 10.1581C14.9333 11.0439 15.7686 11.4868 15.9453 12.1135C16.0182 12.3722 16.0182 12.6444 15.9453 12.9031Z" stroke="white" stroke-width="1.5" stroke-linecap="round" stroke-linejoin="round"/>
</svg>
