<svg width="20" height="21" viewBox="0 0 20 21" fill="none" xmlns="http://www.w3.org/2000/svg">
<path d="M18.3333 6.75701C18.3333 8.95832 16.4676 10.7432 14.1667 10.7432C13.8961 10.7435 13.6263 10.7185 13.3606 10.6686C13.1692 10.6327 13.0736 10.6147 13.0068 10.6249C12.9401 10.6351 12.8454 10.6854 12.6562 10.7861C12.1208 11.0707 11.4966 11.1713 10.8962 11.0597C11.1244 10.779 11.2803 10.4422 11.349 10.0812C11.3907 9.86041 11.2875 9.64591 11.1328 9.48891C10.4305 8.77568 10 7.81466 10 6.75701C10 4.55569 11.8657 2.77087 14.1667 2.77087C16.4676 2.77087 18.3333 4.55569 18.3333 6.75701Z" stroke="#C58DE7" stroke-width="1.5" stroke-linejoin="round"/>
<path d="M12.9102 6.9375H12.9169M15.4102 6.9375H15.4169" stroke="#C58DE7" stroke-width="1.5" stroke-linecap="round"/>
<path d="M6.2516 18.6043H3.93183C3.66242 18.6043 3.39186 18.5664 3.14441 18.46C2.3389 18.1139 1.93022 17.6569 1.73976 17.371C1.63139 17.2084 1.64683 17.0012 1.7644 16.845C2.69765 15.6054 4.8654 14.8568 6.25556 14.8567C7.64572 14.8568 9.80952 15.6054 10.7428 16.845C10.8604 17.0012 10.8758 17.2084 10.7674 17.371C10.5769 17.6569 10.1683 18.1139 9.36277 18.46C9.11527 18.5664 8.84477 18.6043 8.57535 18.6043H6.2516Z" stroke="#C58DE7" stroke-width="1.5" stroke-linecap="round" stroke-linejoin="round"/>
<path d="M8.57118 10.5116C8.57118 11.7877 7.53442 12.8222 6.25555 12.8222C4.97667 12.8222 3.93994 11.7877 3.93994 10.5116C3.93994 9.23552 4.97667 8.20105 6.25555 8.20105C7.53442 8.20105 8.57118 9.23552 8.57118 10.5116Z" stroke="#C58DE7" stroke-width="1.5" stroke-linecap="round" stroke-linejoin="round"/>
</svg>
