<svg width="24" height="25" viewBox="0 0 24 25" fill="none" xmlns="http://www.w3.org/2000/svg">
<path d="M22 7.82877C22 10.4703 19.7611 12.6122 17 12.6122C16.6753 12.6126 16.3516 12.5825 16.0327 12.5226C15.8031 12.4795 15.6883 12.4581 15.6082 12.4703C15.5281 12.4825 15.4145 12.5429 15.1874 12.6637C14.545 13.0053 13.7959 13.126 13.0755 12.992C13.3493 12.6552 13.5363 12.2511 13.6188 11.8179C13.6688 11.5529 13.545 11.2954 13.3594 11.107C12.5166 10.2512 12 9.09795 12 7.82877C12 5.18719 14.2388 3.04541 17 3.04541C19.7611 3.04541 22 5.18719 22 7.82877Z" stroke="white" stroke-width="1.5" stroke-linejoin="round"/>
<path d="M15.4922 8.04541H15.5003M18.4922 8.04541H18.5003" stroke="white" stroke-width="1.5" stroke-linecap="round"/>
<path d="M7.50189 22.0454H4.71817C4.39488 22.0454 4.07021 21.9999 3.77327 21.8723C2.80666 21.457 2.31624 20.9086 2.08769 20.5655C1.95764 20.3704 1.97617 20.1217 2.11726 19.9343C3.23716 18.4468 5.83846 17.5484 7.50665 17.5483C9.17484 17.5484 11.7714 18.4468 12.8913 19.9343C13.0324 20.1217 13.0509 20.3704 12.9209 20.5655C12.6923 20.9086 12.2019 21.457 11.2353 21.8723C10.9383 21.9999 10.6137 22.0454 10.2904 22.0454H7.50189Z" stroke="white" stroke-width="1.5" stroke-linecap="round" stroke-linejoin="round"/>
</svg>
